<?xml version="1.0" encoding="UTF-8"?>
<svg id="Capa_2" data-name="Capa 2" xmlns="http://www.w3.org/2000/svg" viewBox="0 0 400 372.83">
  <defs>
    <style>
      .cls-1 {
        fill: none;
      }

      .cls-2 {
        fill: #fff;
      }
    </style>
  </defs>
  <g id="Capa_1-2" data-name="Capa 1">
    <g>
      <rect class="cls-1" width="400" height="372.83"/>
      <g>
        <path class="cls-2" d="M266,191.71c.64,1.27.64,2.77,0,4.05l-15.74,31.48-16.75,33.51-8.18,16.36c-2.14,4.27-8.57,2.75-8.57-2.02v-46.78c0-.7.16-1.4.48-2.02l13-26c1.5-3.01-.68-6.55-4.05-6.55h-4.91c-2.5,0-4.53-2.03-4.53-4.53v-24.46c0-2.5,2.03-4.53,4.53-4.53h26.19c1.71,0,3.28.97,4.05,2.5l14.49,28.98Z"/>
        <path class="cls-2" d="M178.71,193.73h-4.91c-3.36,0-5.55,3.54-4.05,6.55l13,26c.31.63.48,1.32.48,2.02v46.78c0,4.78-6.44,6.3-8.57,2.02l-8.18-16.36-16.75-33.51-15.74-31.48c-.64-1.27-.64-2.77,0-4.05l14.49-28.98c.77-1.53,2.33-2.5,4.05-2.5h26.19c2.5,0,4.53,2.03,4.53,4.53v24.46c0,2.5-2.03,4.53-4.53,4.53Z"/>
        <path class="cls-2" d="M299.52,128.74l-11.71,23.39c-1.67,3.33-6.43,3.33-8.09,0l-11.46-22.92c-.77-1.53-2.33-2.5-4.05-2.5h-128.44c-1.71,0-3.28.97-4.05,2.5l-11.46,22.91c-1.67,3.34-6.43,3.34-8.1,0l-11.69-23.39c-.64-1.27-.64-2.77,0-4.05l14.49-28.98c.77-1.53,2.33-2.5,4.05-2.5h161.95c1.71,0,3.28.97,4.05,2.5l14.51,28.98c.64,1.28.64,2.78,0,4.05Z"/>
      </g>
    </g>
  </g>
</svg>