<?xml version="1.0" encoding="UTF-8"?>
<svg id="Capa_2" data-name="Capa 2" xmlns="http://www.w3.org/2000/svg" viewBox="0 0 1039.71 393.56">
  <defs>
    <style>
      .cls-1 {
        fill: none;
      }

      .cls-2 {
        fill: #acbccc;
      }

      .cls-3 {
        fill: #00d27d;
      }
    </style>
  </defs>
  <g id="Capa_1-2" data-name="Capa 1">
    <g>
      <rect class="cls-1" width="1039.71" height="393.56"/>
      <g>
        <g>
          <polygon class="cls-2" points="414.56 188.34 358.8 188.34 358.8 146.15 341.03 146.15 341.03 249.72 358.8 249.72 358.8 203.69 414.56 203.69 414.56 249.72 432.33 249.72 432.33 146.15 414.56 146.15 414.56 188.34"/>
          <path class="cls-2" d="M527.85,173h-17.39v43.35c0,6.14-1.81,10.91-5.43,14.32-3.62,3.41-8.72,5.11-15.28,5.11s-11.21-1.6-14.45-4.8c-3.24-3.2-4.86-7.95-4.86-14.26v-43.73h-17.39v47.18c0,9.55,2.83,17.09,8.5,22.63,5.67,5.54,13.62,8.31,23.85,8.31,6.65,0,12.23-1.15,16.75-3.45,4.52-2.3,8.23-5.67,11.12-10.1h5.37v12.15h18.03v-17.52h-8.82v-59.2Z"/>
          <path class="cls-2" d="M595.11,171.59c-6.48,0-12,1.17-16.56,3.52-4.56,2.35-8.21,5.69-10.93,10.04h-5.37v-12.15h-18.16v17.52h8.82v59.2h17.39v-43.35c0-6.31,1.71-11.12,5.12-14.45,3.41-3.32,8.4-4.99,14.96-4.99s11.53,1.66,14.9,4.99c3.37,3.32,5.05,8.14,5.05,14.45v43.35h17.39v-46.42c0-9.63-2.88-17.33-8.63-23.08-5.75-5.75-13.75-8.63-23.98-8.63Z"/>
          <path class="cls-2" d="M670.17,186.55h18.92v-13.55h-19.05v-23.02h-17.13v23.02h-13.94v13.55h13.81v48.72c0,4.86,1.3,8.48,3.9,10.87,2.6,2.39,6.24,3.58,10.93,3.58h23.4v-13.68h-20.84v-49.49Z"/>
          <path class="cls-2" d="M758.4,176c-5.54-3.02-12.15-4.54-19.82-4.54s-14.96,1.62-20.84,4.86c-5.88,3.24-10.42,7.82-13.62,13.75-3.2,5.93-4.79,12.94-4.79,21.03s1.62,15.17,4.86,21.23c3.24,6.05,7.86,10.72,13.87,14,6.01,3.28,13.06,4.92,21.16,4.92,9.55,0,17.5-2.24,23.85-6.71,6.35-4.48,10.46-10.72,12.34-18.73h-17.65c-1.19,3.75-3.37,6.57-6.52,8.44-3.15,1.88-7.2,2.81-12.15,2.81-6.74,0-12.11-1.9-16.11-5.69-4.01-3.79-6.35-9.18-7.03-16.18h59.84v-6.39c0-7.67-1.51-14.3-4.54-19.88-3.03-5.58-7.31-9.89-12.85-12.92ZM716.45,203.05c1.19-5.63,3.71-9.95,7.54-12.98,3.84-3.02,8.7-4.54,14.58-4.54s10.61,1.51,14.19,4.54c3.58,3.03,5.71,7.35,6.39,12.98h-42.71Z"/>
          <path class="cls-2" d="M825.53,236.17c-6.74,0-12.06-2.17-15.98-6.52-3.92-4.35-5.88-10.44-5.88-18.29s1.96-13.94,5.88-18.29c3.92-4.35,9.25-6.52,15.98-6.52,5.03,0,9.14,1.07,12.34,3.2,3.2,2.13,5.43,5.29,6.71,9.46h17.52c-1.88-8.78-6.01-15.6-12.4-20.46-6.39-4.86-14.45-7.29-24.17-7.29-7.93,0-14.83,1.64-20.71,4.92-5.88,3.28-10.44,7.91-13.68,13.87-3.24,5.97-4.86,13-4.86,21.1s1.64,15.13,4.92,21.1c3.28,5.97,7.86,10.59,13.75,13.87,5.88,3.28,12.74,4.92,20.59,4.92,10.14,0,18.41-2.51,24.81-7.54,6.39-5.03,10.44-12.19,12.15-21.48h-17.52c-2.39,9.29-8.87,13.94-19.44,13.94Z"/>
          <path class="cls-2" d="M939.91,180.22c-5.67-5.75-13.32-8.63-22.95-8.63-5.88,0-10.98,1.11-15.28,3.32-4.31,2.22-7.69,5.5-10.17,9.85h-.51v-42.45h-17.39v107.41h17.39v-43.35c0-6.31,1.71-11.12,5.12-14.45,3.41-3.32,8.4-4.99,14.96-4.99s11.53,1.66,14.9,4.99c3.37,3.32,5.05,8.14,5.05,14.45v43.35h17.39v-46.42c0-9.63-2.83-17.33-8.5-23.08Z"/>
        </g>
        <g>
          <path class="cls-3" d="M257.3,202.08c.64,1.27.64,2.77,0,4.05l-15.74,31.48-16.75,33.51-8.18,16.36c-2.14,4.27-8.57,2.75-8.57-2.02v-46.78c0-.7.16-1.4.48-2.02l13-26c1.5-3.01-.68-6.55-4.05-6.55h-4.91c-2.5,0-4.53-2.03-4.53-4.53v-24.46c0-2.5,2.03-4.53,4.53-4.53h26.19c1.71,0,3.28.97,4.05,2.5l14.49,28.98Z"/>
          <path class="cls-3" d="M170.01,204.1h-4.91c-3.36,0-5.55,3.54-4.05,6.55l13,26c.31.63.48,1.32.48,2.02v46.78c0,4.78-6.44,6.3-8.57,2.02l-8.18-16.36-16.75-33.51-15.74-31.48c-.64-1.27-.64-2.77,0-4.05l14.49-28.98c.77-1.53,2.33-2.5,4.05-2.5h26.19c2.5,0,4.53,2.03,4.53,4.53v24.46c0,2.5-2.03,4.53-4.53,4.53Z"/>
          <path class="cls-3" d="M290.82,139.11l-11.71,23.39c-1.67,3.33-6.43,3.33-8.09,0l-11.46-22.92c-.77-1.53-2.33-2.5-4.05-2.5H127.07c-1.71,0-3.28.97-4.05,2.5l-11.46,22.91c-1.67,3.34-6.43,3.34-8.1,0l-11.69-23.39c-.64-1.27-.64-2.77,0-4.05l14.49-28.98c.77-1.53,2.33-2.5,4.05-2.5h161.95c1.71,0,3.28.97,4.05,2.5l14.51,28.98c.64,1.28.64,2.78,0,4.05Z"/>
        </g>
      </g>
    </g>
  </g>
</svg>